<?xml version="1.0" encoding="UTF-8" standalone="no"?>
<svg
   xmlns:dc="http://purl.org/dc/elements/1.1/"
   xmlns:cc="http://creativecommons.org/ns#"
   xmlns:rdf="http://www.w3.org/1999/02/22-rdf-syntax-ns#"
   xmlns:svg="http://www.w3.org/2000/svg"
   xmlns="http://www.w3.org/2000/svg"
   xmlns:sodipodi="http://sodipodi.sourceforge.net/DTD/sodipodi-0.dtd"
   xmlns:inkscape="http://www.inkscape.org/namespaces/inkscape"
   viewBox="0 0 128 128"
   style="display:inline;enable-background:new"
   version="1.0"
   id="svg11300"
   height="128"
   width="128"
   sodipodi:docname="goa-account-mailboxorg.svg"
   inkscape:version="0.92.4 5da689c313, 2019-01-14">
  <sodipodi:namedview
     pagecolor="#ffffff"
     bordercolor="#666666"
     borderopacity="1"
     objecttolerance="10"
     gridtolerance="10"
     guidetolerance="10"
     inkscape:pageopacity="0"
     inkscape:pageshadow="2"
     inkscape:window-width="1920"
     inkscape:window-height="1009"
     id="namedview18"
     showgrid="false"
     inkscape:zoom="1.84375"
     inkscape:cx="-4.0677966"
     inkscape:cy="64"
     inkscape:window-x="0"
     inkscape:window-y="29"
     inkscape:window-maximized="1"
     inkscape:current-layer="svg11300" />
  <title
     id="title4162">Adwaita Icon Template</title>
  <defs
     id="defs3">
    <clipPath
       id="clipPath16-6"
       clipPathUnits="userSpaceOnUse">
      <path
         id="path18-8"
         d="M 0,500 H 500 V 0 H 0 Z" />
    </clipPath>
  </defs>
  <metadata
     id="metadata4">
    <rdf:RDF>
      <cc:Work
         rdf:about="">
        <dc:format>image/svg+xml</dc:format>
        <dc:type
           rdf:resource="http://purl.org/dc/dcmitype/StillImage" />
        <dc:creator>
          <cc:Agent>
            <dc:title>GNOME Design Team</dc:title>
          </cc:Agent>
        </dc:creator>
        <dc:source />
        <cc:license
           rdf:resource="http://creativecommons.org/licenses/by-sa/4.0/" />
        <dc:title>Adwaita Icon Template</dc:title>
        <dc:subject>
          <rdf:Bag />
        </dc:subject>
        <dc:date />
        <dc:rights>
          <cc:Agent>
            <dc:title />
          </cc:Agent>
        </dc:rights>
        <dc:publisher>
          <cc:Agent>
            <dc:title />
          </cc:Agent>
        </dc:publisher>
        <dc:identifier />
        <dc:relation />
        <dc:language />
        <dc:coverage />
        <dc:description />
        <dc:contributor>
          <cc:Agent>
            <dc:title />
          </cc:Agent>
        </dc:contributor>
      </cc:Work>
      <cc:License
         rdf:about="http://creativecommons.org/licenses/by-sa/4.0/">
        <cc:permits
           rdf:resource="http://creativecommons.org/ns#Reproduction" />
        <cc:permits
           rdf:resource="http://creativecommons.org/ns#Distribution" />
        <cc:requires
           rdf:resource="http://creativecommons.org/ns#Notice" />
        <cc:requires
           rdf:resource="http://creativecommons.org/ns#Attribution" />
        <cc:permits
           rdf:resource="http://creativecommons.org/ns#DerivativeWorks" />
        <cc:requires
           rdf:resource="http://creativecommons.org/ns#ShareAlike" />
      </cc:License>
    </rdf:RDF>
  </metadata>
  <path
     inkscape:connector-curvature="0"
     id="path94"
     d="m 110.04627,96.106871 c -0.16887,-0.0605 -0.70331,-0.28054 -1.18767,-0.48878 -0.74936,-0.32219 -0.84956,-0.43308 -0.67205,-0.74357 0.53649,-0.93839 0.53072,-0.93642 1.41446,-0.48557 0.57565,0.29368 1.22461,0.42768 2.07126,0.42768 1.06677,0 1.32112,-0.0788 1.88667,-0.58406 0.56042,-0.50075 0.65578,-0.72698 0.6684,-1.58579 l 0.0148,-1.0017 -2.16246,-3.7e-4 c -2.00509,-3.6e-4 -2.22326,-0.0406 -2.99779,-0.55219 -1.23811,-0.81784 -1.5468,-1.79712 -1.45922,-4.62943 0.0586,-1.89562 0.13807,-2.35208 0.49189,-2.82536 0.66603,-0.89091 1.33051,-1.28891 2.59273,-1.55294 1.22696,-0.25664 3.51573,-0.0512 4.71172,0.42289 l 0.56286,0.22313 v 5.03128 c 0,2.95759 -0.0921,5.39703 -0.22345,5.91865 -0.25706,1.02099 -1.175,1.99058 -2.21201,2.33657 -0.70414,0.23488 -2.93585,0.29204 -3.5001,0.0896 z m 3.81236,-6.09823 c 0.47431,-0.31079 0.48578,-0.38847 0.48578,-3.28642 v -2.96813 l -0.525,-0.19961 c -0.79364,-0.30175 -2.69341,-0.23926 -3.3705,0.11087 -0.92827,0.48003 -1.22135,1.26498 -1.22135,3.27132 0,2.33529 0.29655,2.89229 1.84208,3.45996 0.52156,0.19156 2.27724,-0.0527 2.78899,-0.38799 z m -82.918923,2.16181 c -1.57907,-0.38108 -2.35375,-1.26752 -2.35375,-2.69332 0,-2.15511 1.01562,-2.8743 4.29816,-3.04362 l 2.14908,-0.11086 -0.0148,-1.00263 c -0.021,-1.42566 -0.66807,-1.96515 -2.35698,-1.96515 -0.67277,0 -1.56546,0.14301 -1.98379,0.31779 -0.72763,0.30403 -0.7761,0.29862 -1.11913,-0.12501 -0.1972,-0.24354 -0.35855,-0.51709 -0.35855,-0.60787 0,-0.40482 1.99765,-0.91529 3.58179,-0.91529 2.02818,0 2.85779,0.40941 3.53485,1.74441 0.43822,0.86408 0.46157,1.12068 0.40935,4.49815 l -0.0554,3.5818 -1.12571,0.2361 c -1.26451,0.26522 -3.67502,0.30998 -4.60517,0.0855 z m 3.93795,-1.48809 c 0.15752,-0.13074 0.25787,-0.7166 0.25787,-1.50555 0,-1.05503 -0.0656,-1.31005 -0.35818,-1.39269 -1.69515,-0.47885 -3.58786,-0.25541 -4.19582,0.49534 -0.74424,0.91902 -0.26711,2.27157 0.93021,2.63689 0.76358,0.23299 2.98972,0.0782 3.36592,-0.23399 z m 18.780886,1.54544 c -0.225144,-0.0469 -0.800789,-0.18633 -1.279216,-0.30988 l -0.869863,-0.22461 v -6.84234 -6.84233 l 0.767528,0.0635 0.767528,0.0635 0.05834,1.97643 c 0.06543,2.21599 0.14505,2.32802 1.406975,1.97959 1.891446,-0.52226 4.20923,0.38339 4.962252,1.93892 0.356536,0.7365 0.428246,1.26424 0.424513,3.12417 -0.0064,3.18824 -0.581754,4.27312 -2.635642,4.96976 -0.663627,0.22509 -2.732641,0.28439 -3.602424,0.10325 z m 3.403412,-1.62059 c 0.874302,-0.45212 1.201756,-1.39649 1.201756,-3.46586 0,-2.06937 -0.327454,-3.01375 -1.201756,-3.46587 -0.776644,-0.40162 -2.27475,-0.41286 -3.205315,-0.0241 l -0.709785,0.29656 v 3.27506 c 0,2.90319 0.04067,3.29875 0.358179,3.48369 0.563519,0.32821 2.853661,0.26413 3.556921,-0.0995 z m 8.364026,1.56209 c -2.070278,-0.62975 -2.713936,-1.60355 -2.831138,-4.2833 -0.117198,-2.67962 0.186431,-3.90255 1.195187,-4.8139 2.074978,-1.87462 6.029155,-1.34406 7.143817,0.95852 0.356541,0.73651 0.428249,1.26425 0.424513,3.12418 -0.0064,3.18823 -0.581755,4.27311 -2.635642,4.96975 -0.772374,0.26198 -2.505285,0.2855 -3.296737,0.0447 z m 3.078133,-1.55196 c 0.941514,-0.48687 1.221348,-1.25902 1.221348,-3.37007 0,-3.07058 -0.750482,-4.03362 -2.998083,-3.84723 -1.831954,0.15192 -2.528905,1.16787 -2.526978,3.68356 0.0014,2.05833 0.28461,2.95613 1.08596,3.44475 0.794418,0.48439 2.36893,0.52794 3.217753,0.089 z m 22.663846,1.5394 c -1.02217,-0.30778 -1.950151,-1.0212 -2.334839,-1.79501 -0.300832,-0.6051 -0.379977,-1.23324 -0.379977,-3.01571 0,-1.23828 0.07042,-2.50301 0.156466,-2.81052 0.872324,-3.11714 6.594354,-3.52384 8.081661,-0.5744 0.396681,0.78661 0.460522,1.23445 0.460522,3.23019 0,2.49739 -0.209628,3.31049 -1.053965,4.08779 -1.005034,0.92523 -3.372263,1.34666 -4.929868,0.87766 z m 3.686652,-1.9083 c 0.527588,-0.5271 0.56113,-0.67614 0.626122,-2.78059 0.05373,-1.74099 -0.0029,-2.36128 -0.259327,-2.85783 -0.477322,-0.92306 -1.379216,-1.31993 -2.742639,-1.20686 -0.945952,0.0785 -1.219556,0.19746 -1.706251,0.74216 -0.567308,0.63493 -0.579541,0.69982 -0.575089,3.05042 0.0038,1.96707 0.0685,2.48021 0.358178,2.83555 0.598682,0.73449 1.112923,0.91046 2.456937,0.84074 1.075649,-0.0558 1.375282,-0.15723 1.842069,-0.62359 z m -82.799875,-2.85048 0.055,-4.7579 0.8187,-0.28565 c 1.27855,-0.44609 3.92889,-0.41161 4.88631,0.0636 0.69124,0.34308 0.87481,0.35958 1.43271,0.12875 2.65431,-1.09823 5.07581,-0.61897 6.15504,1.21817 0.37582,0.63975 0.42753,1.1227 0.48753,4.55331 l 0.0672,3.83764 h -0.83465 -0.83464 l -7.3e-4,-3.53063 c -7.4e-4,-3.16766 -0.0428,-3.59955 -0.40944,-4.20093 -0.45082,-0.73948 -1.1083,-1.06944 -2.13095,-1.06944 -0.85893,0 -1.95594,0.37949 -1.98081,0.68523 -0.0105,0.12969 -0.003,2.0088 0.0171,4.17579 l 0.0363,3.93998 h -0.82316 -0.82316 l -0.0638,-3.80372 -0.0638,-3.8037 -0.66842,-0.59678 c -0.56818,-0.5073 -0.83877,-0.5968 -1.80435,-0.5968 -2.00938,0 -1.92773,-0.1954 -1.92773,4.61237 v 4.18863 h -0.82247 -0.82246 z m 28.08493,4.49763 c -0.0549,-0.14315 -0.0751,-2.37666 -0.0448,-4.96335 l 0.0551,-4.70308 0.767526,-0.0635 0.767528,-0.0635 v 5.02688 5.02687 H 40.96224 c -0.397531,0 -0.767733,-0.11712 -0.822663,-0.26027 z m 5.638922,-6.80099 v -7.06126 h 0.818693 0.818697 v 7.06126 7.06126 h -0.818697 -0.818693 z m 27.546064,6.81742 c 0.0873,-0.14731 0.786855,-1.20883 1.55456,-2.35893 0.7677,-1.15011 1.395823,-2.23622 1.395823,-2.4136 0,-0.17739 -0.637783,-1.32334 -1.417289,-2.54657 -0.77951,-1.22323 -1.362834,-2.27851 -1.296268,-2.34508 0.170755,-0.17075 1.338681,-0.14483 1.605463,0.0356 0.122262,0.0827 0.562777,0.7633 0.978924,1.51244 0.794707,1.43061 1.202348,1.89612 1.556919,1.77792 0.117408,-0.0391 0.654804,-0.80769 1.194222,-1.7079 0.95544,-1.59452 1.002933,-1.63839 1.840156,-1.6997 0.472668,-0.0346 0.859399,0.005 0.859399,0.0873 0,0.0827 -0.654717,1.19283 -1.454928,2.46704 -0.849436,1.35262 -1.405796,2.44481 -1.336864,2.62444 0.06493,0.16922 0.765708,1.26425 1.55727,2.4334 0.791562,1.16915 1.439203,2.18235 1.439203,2.25157 0,0.0692 -0.408285,0.12584 -0.907303,0.12584 h -0.907297 l -1.050844,-1.73974 c -0.699203,-1.15756 -1.175084,-1.73972 -1.422106,-1.73972 -0.248035,0 -0.702031,0.56046 -1.367816,1.68856 l -0.996549,1.68857 -0.991706,0.0632 c -0.77294,0.0492 -0.95669,0.004 -0.832969,-0.20468 z m 11.137351,-0.5625 v -0.83106 h 0.831058 0.831039 l -0.06351,0.76754 c -0.06006,0.72584 -0.105203,0.77097 -0.831049,0.83105 l -0.767524,0.0635 z m 15.759896,-3.96917 v -4.77549 l 0.76753,-0.2476 c 0.98013,-0.31619 3.52859,-0.53137 4.22448,-0.35671 0.42637,0.10701 0.53419,0.25724 0.53419,0.7442 v 0.61012 h -1.41939 c -0.78067,0 -1.65565,0.0898 -1.9444,0.19961 l -0.52501,0.19961 v 4.20088 4.20089 h -0.8187 -0.8187 z m -60.135373,-8.47714 c 0.0601,-0.72585 0.1052,-0.77098 0.831048,-0.83105 l 0.767529,-0.0635 v 0.83105 0.83104 h -0.831051 -0.831056 z m -26.13477,-8.93455 c -0.7695,-0.33966 -1.22706,-0.84836 -1.62959,-1.81176 -0.27173,-0.65034 -0.31481,-2.47703 -0.31481,-13.3475 0,-6.92672 0.0488,-12.59403 0.10848,-12.59403 0.0597,0 5.86615,3.92301 12.90328,8.71781 l 12.79479,8.71781 0.96339,-0.0791 c 0.86883,-0.0713 1.710827,-0.58547 8.577441,-5.23835 4.187721,-2.83763 7.664622,-5.15933 7.726447,-5.15933 0.06183,0 0.112414,4.74332 0.112414,10.54071 v 10.54072 l -20.313902,-0.008 c -16.3993,-0.007 -20.43224,-0.0603 -20.92794,-0.27905 z m 53.112942,-17.31146 v -17.59853 l 0.972202,-0.49127 c 3.41732,-1.72683 10.163817,-2.95355 14.992384,-2.72606 2.827995,0.13323 4.344239,0.46469 6.356216,1.38953 l 1.341701,0.61672 1.523727,-0.51037 c 3.338395,-1.11818 5.513189,-1.43953 9.710701,-1.43484 3.32987,0.004 4.11555,0.0671 5.46622,0.44052 4.42882,1.22469 6.90875,3.69593 8.07674,8.04845 0.31358,1.1686 0.36001,2.87597 0.42378,15.58836 l 0.0716,14.27602 h -4.19665 -4.19666 l -0.0641,-13.55967 c -0.0591,-12.48802 -0.0937,-13.64862 -0.43856,-14.68537 -0.453,-1.36207 -1.70758,-2.66073 -2.92187,-3.02454 -1.94288,-0.58211 -8.018535,-0.11545 -8.853383,0.68002 -0.244361,0.23282 -0.247412,0.48575 -0.02005,1.66767 0.198211,1.03067 0.29072,4.97503 0.355435,15.15756 l 0.0875,13.76433 H 91.53951 87.327448 v -13.07122 c 0,-7.92642 -0.08126,-13.50513 -0.20651,-14.17368 -0.323456,-1.72684 -1.000246,-2.85057 -2.142135,-3.55673 -0.946776,-0.58552 -1.117643,-0.61826 -3.468243,-0.66472 -2.016381,-0.0398 -2.793316,0.0356 -4.212151,0.40935 l -1.739738,0.45821 -0.05249,15.2994 -0.05247,15.29939 H 71.25921 67.064694 Z m -41.904452,-8.3597 c -11.10097,-7.54718 -13.14813,-9.01355 -13.15031,-9.41946 -0.005,-0.82794 0.64261,-1.88783 1.49826,-2.45413 l 0.82285,-0.54459 20.43474,-0.055 20.434738,-0.055 -0.05463,5.27272 -0.05463,5.27272 -8.077725,5.47653 c -4.442749,3.01209 -8.218993,5.46942 -8.391643,5.46075 -0.17265,-0.009 -6.23039,-4.0382 -13.46164,-8.9545 z"
     style="fill:#77b325;stroke-width:0.20467414" />
</svg>
